<svg width="365" height="110" viewBox="0 0 365 110" fill="none" xmlns="http://www.w3.org/2000/svg">
<rect width="110" height="110" rx="20" fill="#2E2E2E"/>
<path d="M51.6068 40.425C51.6068 38.1083 49.6765 36.2129 47.3172 36.2129H17.2896C14.9303 36.2129 13 38.1083 13 40.425C13 42.7417 14.9303 44.6372 17.2896 44.6372H47.3172C49.6765 44.6372 51.6068 42.7417 51.6068 40.425ZM51.6068 74.1223C51.6068 71.8056 49.6765 69.9102 47.3172 69.9102H17.2896C14.9303 69.9102 13 71.8056 13 74.1223C13 76.439 14.9303 78.3345 17.2896 78.3345H47.3172C49.6765 78.3345 51.6068 76.439 51.6068 74.1223ZM77.5592 50.0709C77.1624 50.4614 76.691 50.7712 76.1721 50.9825C75.6531 51.1939 75.0968 51.3027 74.535 51.3027C73.9732 51.3027 73.4169 51.1939 72.898 50.9825C72.3791 50.7712 71.9077 50.4614 71.5108 50.0709L62.4168 41.1411C61.6147 40.3535 61.1641 39.2853 61.1641 38.1715C61.1641 37.62 61.2747 37.0739 61.4897 36.5644C61.7046 36.0549 62.0196 35.5919 62.4168 35.2019C62.8139 34.812 63.2854 34.5026 63.8043 34.2916C64.3232 34.0805 64.8793 33.9719 65.441 33.9719C66.5753 33.9719 67.6631 34.4144 68.4652 35.2019L74.5136 41.1411L89.6989 26.23C90.501 25.4425 91.5888 25 92.7231 25C93.8574 25 94.9453 25.4425 95.7473 26.23C96.5494 27.0176 97 28.0858 97 29.1996C97 30.3134 96.5494 31.3816 95.7473 32.1692L77.5592 50.0709ZM77.5592 83.7682C77.1624 84.1587 76.691 84.4685 76.1721 84.6798C75.6531 84.8912 75.0968 85 74.535 85C73.9732 85 73.4169 84.8912 72.898 84.6798C72.3791 84.4685 71.9077 84.1587 71.5108 83.7682L62.4168 74.8384C61.6147 74.0508 61.1641 72.9826 61.1641 71.8688C61.1641 70.755 61.6147 69.6868 62.4168 68.8992C63.2188 68.1117 64.3067 67.6692 65.441 67.6692C66.5753 67.6692 67.6631 68.1117 68.4652 68.8992L74.5136 74.8384L89.6989 59.9273C90.0961 59.5374 90.5676 59.228 91.0864 59.017C91.6053 58.8059 92.1615 58.6973 92.7231 58.6973C93.2848 58.6973 93.8409 58.8059 94.3598 59.017C94.8787 59.228 95.3502 59.5374 95.7473 59.9273C96.1445 60.3173 96.4595 60.7803 96.6744 61.2898C96.8894 61.7993 97 62.3454 97 62.8969C97 63.4484 96.8894 63.9945 96.6744 64.504C96.4595 65.0136 96.1445 65.4765 95.7473 65.8665L77.5592 83.7682Z" fill="white"/>
<path d="M155.641 73.6719V25.25C155.641 24.9063 155.625 24.6406 155.594 24.4531C155.562 24.2656 155.453 24.0781 155.266 23.8906C155.109 23.7031 154.859 23.6094 154.516 23.6094C153.047 23.6094 150.906 23.6094 148.094 23.6094C145.312 23.5781 143.312 23.5625 142.094 23.5625C141.812 24.1875 141.344 25.75 140.688 28.25C140.062 30.7188 139.422 32.8906 138.766 34.7656C138.109 36.6406 137.516 37.5781 136.984 37.5781C135.797 37.5781 134.734 37.4219 133.797 37.1094C132.891 36.7969 132.188 36.4219 131.688 35.9844C131.219 35.5156 130.859 35.0938 130.609 34.7188C130.391 34.3125 130.281 34 130.281 33.7812C130.281 32.7188 130.859 29.5 132.016 24.125C133.172 18.75 133.969 15.8437 134.406 15.4062C134.5 15.4062 134.594 15.4219 134.688 15.4531C134.781 15.4531 134.875 15.4531 134.969 15.4531C144.25 16.2344 152.953 16.625 161.078 16.625C169.172 16.625 177.859 16.2344 187.141 15.4531C187.234 15.4531 187.328 15.4531 187.422 15.4531C187.516 15.4219 187.609 15.4062 187.703 15.4062C188.141 15.8437 188.938 18.75 190.094 24.125C191.25 29.5 191.828 32.7188 191.828 33.7812C191.828 34 191.703 34.3125 191.453 34.7188C191.234 35.0938 190.875 35.5156 190.375 35.9844C189.906 36.4219 189.203 36.7969 188.266 37.1094C187.359 37.4219 186.312 37.5781 185.125 37.5781C184.594 37.5781 184 36.6406 183.344 34.7656C182.688 32.8906 182.031 30.7188 181.375 28.25C180.75 25.75 180.297 24.1875 180.016 23.5625C178.797 23.5625 176.781 23.5781 173.969 23.6094C171.188 23.6094 169.062 23.6094 167.594 23.6094C167.094 23.6094 166.781 23.75 166.656 24.0312C166.531 24.3125 166.469 24.7188 166.469 25.25V73.5781C166.469 74.0469 166.484 74.4219 166.516 74.7031C166.578 74.9531 166.688 75.25 166.844 75.5938C167.031 75.9375 167.344 76.2031 167.781 76.3906C168.219 76.5469 168.781 76.625 169.469 76.625C170.906 76.625 172.141 76.8125 173.172 77.1875C174.203 77.5625 174.719 78.125 174.719 78.875C174.719 83.0312 174.203 85.5781 173.172 86.5156C168.484 86.1719 164.469 86 161.125 86C157.844 86 153.797 86.1719 148.984 86.5156C147.953 85.5781 147.438 83.0312 147.438 78.875C147.438 78.125 147.953 77.5625 148.984 77.1875C150.016 76.8125 151.25 76.625 152.688 76.625C153.906 76.625 154.703 76.375 155.078 75.875C155.453 75.3438 155.641 74.6094 155.641 73.6719ZM193.469 72.4062C191.969 68.9688 191.219 65.1406 191.219 60.9219C191.219 56.7031 191.969 52.8906 193.469 49.4844C194.969 46.0781 196.969 43.3281 199.469 41.2344C201.969 39.1094 204.766 37.4844 207.859 36.3594C210.953 35.2344 214.188 34.6719 217.562 34.6719C220.906 34.6719 224.125 35.2344 227.219 36.3594C230.312 37.4844 233.094 39.1094 235.562 41.2344C238.062 43.3281 240.062 46.0781 241.562 49.4844C243.062 52.8906 243.812 56.7031 243.812 60.9219C243.812 65.1406 243.062 68.9688 241.562 72.4062C240.062 75.8125 238.062 78.5781 235.562 80.7031C233.094 82.8281 230.312 84.4531 227.219 85.5781C224.125 86.7031 220.906 87.2656 217.562 87.2656C214.188 87.2656 210.953 86.7031 207.859 85.5781C204.766 84.4531 201.969 82.8281 199.469 80.7031C196.969 78.5781 194.969 75.8125 193.469 72.4062ZM206.734 47.4688C203.703 50.6875 202.188 55.1719 202.188 60.9219C202.188 66.6719 203.703 71.1719 206.734 74.4219C209.766 77.6406 213.344 79.25 217.469 79.25C219.438 79.25 221.328 78.8594 223.141 78.0781C224.953 77.2969 226.578 76.1719 228.016 74.7031C229.484 73.2031 230.656 71.2656 231.531 68.8906C232.406 66.5156 232.844 63.8594 232.844 60.9219C232.844 57.9844 232.406 55.3281 231.531 52.9531C230.656 50.5781 229.484 48.6562 228.016 47.1875C226.578 45.7188 224.953 44.5938 223.141 43.8125C221.328 43.0312 219.438 42.6406 217.469 42.6406C213.344 42.6406 209.766 44.25 206.734 47.4688ZM287.406 64.25V52.0156C285.75 49.0469 283.562 46.7344 280.844 45.0781C278.125 43.4219 275.312 42.5938 272.406 42.5938C268.406 42.5938 265.031 44.1719 262.281 47.3281C259.562 50.4531 258.203 55.0156 258.203 61.0156C258.203 66.7656 259.672 71.25 262.609 74.4688C265.547 77.6875 269.031 79.2969 273.062 79.2969C274.812 79.2969 276.531 78.9844 278.219 78.3594C279.906 77.7031 281.438 76.7656 282.812 75.5469C284.188 74.3281 285.297 72.75 286.141 70.8125C286.984 68.8438 287.406 66.6562 287.406 64.25ZM298.047 22.8125V74.2344C298.047 74.6719 298.078 75.0469 298.141 75.3594C298.203 75.6406 298.328 75.9531 298.516 76.2969C298.734 76.6094 299.078 76.8594 299.547 77.0469C300.016 77.2344 300.625 77.3438 301.375 77.375C304.312 77.5 305.781 78.1562 305.781 79.3438C305.781 83.0938 305.25 85.4375 304.188 86.375C302.469 86.125 300.609 86 298.609 86C295.797 86 293.047 86.125 290.359 86.375C288.391 85.4688 287.406 83.2969 287.406 79.8594V79.4375C285.719 81.9375 283.328 83.875 280.234 85.25C277.141 86.5938 273.953 87.2656 270.672 87.2656C267.672 87.2656 264.797 86.7031 262.047 85.5781C259.297 84.4531 256.797 82.8438 254.547 80.75C252.328 78.625 250.547 75.8594 249.203 72.4531C247.859 69.0469 247.188 65.2344 247.188 61.0156C247.188 56.7969 247.891 52.9844 249.297 49.5781C250.703 46.1719 252.578 43.4219 254.922 41.3281C257.297 39.2031 259.938 37.5781 262.844 36.4531C265.75 35.3281 268.781 34.75 271.938 34.7188H272.219C278.375 34.7188 283.438 37.0156 287.406 41.6094V29.3281C287.406 27.6719 286.922 26.5 285.953 25.8125C285.016 25.125 283.188 24.7188 280.469 24.5938C280.062 24.5 279.797 24.2969 279.672 23.9844C279.578 23.6719 279.531 23 279.531 21.9688C279.531 20.375 279.703 18.9688 280.047 17.75C280.391 16.5312 280.734 15.8281 281.078 15.6406C283.672 15.9844 286.156 16.1562 288.531 16.1562C289.938 16.1562 291.422 16.0781 292.984 15.9219C294.547 15.7344 295.375 15.6406 295.469 15.6406C296.562 15.6406 297.266 15.9219 297.578 16.4844C297.922 17.0156 298.094 18.2656 298.094 20.2344C298.094 20.4531 298.078 20.8594 298.047 21.4531C298.047 22.0156 298.047 22.4688 298.047 22.8125ZM311.125 72.4062C309.625 68.9688 308.875 65.1406 308.875 60.9219C308.875 56.7031 309.625 52.8906 311.125 49.4844C312.625 46.0781 314.625 43.3281 317.125 41.2344C319.625 39.1094 322.422 37.4844 325.516 36.3594C328.609 35.2344 331.844 34.6719 335.219 34.6719C338.562 34.6719 341.781 35.2344 344.875 36.3594C347.969 37.4844 350.75 39.1094 353.219 41.2344C355.719 43.3281 357.719 46.0781 359.219 49.4844C360.719 52.8906 361.469 56.7031 361.469 60.9219C361.469 65.1406 360.719 68.9688 359.219 72.4062C357.719 75.8125 355.719 78.5781 353.219 80.7031C350.75 82.8281 347.969 84.4531 344.875 85.5781C341.781 86.7031 338.562 87.2656 335.219 87.2656C331.844 87.2656 328.609 86.7031 325.516 85.5781C322.422 84.4531 319.625 82.8281 317.125 80.7031C314.625 78.5781 312.625 75.8125 311.125 72.4062ZM324.391 47.4688C321.359 50.6875 319.844 55.1719 319.844 60.9219C319.844 66.6719 321.359 71.1719 324.391 74.4219C327.422 77.6406 331 79.25 335.125 79.25C337.094 79.25 338.984 78.8594 340.797 78.0781C342.609 77.2969 344.234 76.1719 345.672 74.7031C347.141 73.2031 348.312 71.2656 349.188 68.8906C350.062 66.5156 350.5 63.8594 350.5 60.9219C350.5 57.9844 350.062 55.3281 349.188 52.9531C348.312 50.5781 347.141 48.6562 345.672 47.1875C344.234 45.7188 342.609 44.5938 340.797 43.8125C338.984 43.0312 337.094 42.6406 335.125 42.6406C331 42.6406 327.422 44.25 324.391 47.4688Z" fill="#DBDBDB"/>
</svg>
